OpenSim_Sub03_CSBaseline_LCS.mot
version=1
nRows=81
nColumns=11
inDegrees=no
endheader
time	Bot_Shank	2nd_Bot_Shank	2nd_Top_Shank	Top_Shank	Bot_Thigh	Med_Thigh	Top_Thigh	BNOx	BNOy	BNOZ
69.66000000	1299.09387675	1280.56545972	1201.16565584	993.53027786	1150.53036358	960.78034529	971.26843405	184.29008868	-65.40924713	-148.42259602
69.67000000	1299.22151035	1280.70454922	1201.34230639	993.04479170	1149.54110398	960.97746307	970.93844371	183.44361834	-65.15980422	-147.21529257
69.68000000	1299.36981576	1280.79851099	1201.33994977	992.42592875	1148.41336843	961.11226591	970.52329415	182.57303174	-64.88630640	-146.02786580
69.69000000	1299.52730228	1280.82609701	1201.09403508	991.68269135	1147.20538339	961.15429701	970.00856532	181.67303941	-64.58579029	-144.84282618
69.70000000	1299.68247920	1280.76605924	1200.54001141	990.82408182	1145.97537534	961.07309955	969.37983713	180.73835186	-64.25529251	-143.64268417
69.71000000	1299.82385583	1280.59714966	1199.61332784	989.85910249	1144.78157077	960.83821673	968.62268952	179.76367960	-63.89184966	-142.40995025
69.72000000	1299.93994146	1280.29812023	1198.24943349	988.79675567	1143.68219614	960.41919172	967.72270241	178.74373317	-63.49249835	-141.12713487
69.73000000	1300.01934072	1279.84790097	1196.38526686	987.64570641	1142.73456071	959.78574126	966.66583029	177.67312030	-63.05432939	-139.77677397
69.74000000	1300.05803245	1279.23919728	1194.07300511	986.38852317	1141.92500761	958.92100864	965.46700554	176.53849873	-62.57862747	-138.34337309
69.75000000	1300.06449536	1278.48806483	1191.56016277	984.96353890	1141.11958741	957.83089612	964.19028019	175.31305027	-62.07378616	-136.81477646
69.76000000	1300.04841896	1277.61282107	1189.11317580	983.30480168	1140.17269855	956.52351048	962.90446423	173.96865139	-61.54888761	-135.17915170
69.77000000	1300.01949278	1276.63178350	1186.99848018	981.34635959	1138.93873944	955.00695855	961.67836767	172.47717857	-61.01301401	-133.42466645
69.78000000	1299.98702495	1275.56310892	1185.47793418	979.02464941	1137.27509742	953.28995092	960.57920977	170.81114600	-60.47497826	-131.54010659
69.79000000	1299.94549811	1274.41870778	1184.63543952	976.36896884	1135.15535396	951.40467048	959.61237008	168.96785904	-59.93312613	-129.53829265
69.80000000	1299.87013604	1273.20237635	1184.32372597	973.52924520	1132.70403077	949.41379149	958.70289615	166.97682762	-59.37220613	-127.46326706
69.81000000	1299.73487540	1271.91736857	1184.38007367	970.66346769	1130.05573718	947.38202599	957.77046681	164.86971398	-58.77605807	-125.36115882
69.82000000	1299.51365287	1270.56693843	1184.64176279	967.92962550	1127.34508249	945.37408603	956.73476088	162.67818035	-58.12852174	-123.27809698
69.83000000	1299.18040512	1269.15433987	1184.94607349	965.48570783	1124.70667603	943.45468365	955.51545719	160.43388897	-57.41343695	-121.26021055
69.84000000	1298.70906881	1267.68282687	1185.13028593	963.48970389	1122.27512712	941.68853089	954.03223457	158.16850206	-56.61464350	-119.35362857
69.85000000	1298.07358061	1266.15565340	1185.03168028	962.09960286	1120.18504507	940.14033980	952.20477184	155.91368186	-55.71598119	-117.60448004
69.86000000	1297.26367271	1264.59095940	1184.52578016	961.44909467	1118.55636263	938.87256936	949.99031309	153.69743498	-54.70795453	-116.04751043
69.87000000	1296.35451173	1263.08739990	1183.69495980	961.54043979	1117.42963020	937.93549225	947.54928449	151.52799562	-53.61711602	-114.65589391
69.88000000	1295.45001690	1261.77072694	1182.69120810	962.33166667	1116.81868240	937.37527990	945.11049233	149.40694365	-52.48214996	-113.38208312
69.89000000	1294.65412909	1260.76671294	1181.66656639	963.78077044	1116.73733372	937.23810065	942.90279440	147.33585395	-51.34174979	-112.17851506
69.90000000	1294.07078921	1260.20113038	1180.77307606	965.84574622	1117.19939865	937.57012284	941.15504852	145.31630136	-50.23460894	-110.99762676
69.91000000	1293.80393814	1260.19975168	1180.16277844	968.48458911	1118.21869166	938.41751481	940.09611248	143.34986074	-49.19942085	-109.79185523
69.92000000	1293.95751678	1260.88834930	1179.98771489	971.65529425	1119.80902724	939.82644491	939.95484409	141.43810697	-48.27487895	-108.51363749
69.93000000	1294.61136046	1262.35184156	1180.36888301	975.29875675	1121.96190337	941.81754930	940.90123101	139.58688566	-47.49431025	-107.13095153
69.94000000	1295.71492299	1264.45417588	1181.25937159	979.26338160	1124.54811295	944.27336622	942.78684530	137.82514205	-46.86201591	-105.69583304
69.95000000	1297.17377876	1266.98493282	1182.55576038	983.36644662	1127.39782609	947.02995766	945.35609758	136.18959546	-46.37252856	-104.28860698
69.96000000	1298.89346915	1269.73363693	1184.15458657	987.42520618	1130.34118229	949.92335057	948.35331773	134.71697108	-46.02037346	-102.98961961
69.97000000	1300.77953549	1272.48981275	1185.95238736	991.25691466	1133.20832107	952.78957192	951.52283563	133.44399409	-45.80007588	-101.87921721
69.98000000	1302.73751916	1275.04298481	1187.84569991	994.67882640	1135.82938193	955.46464866	954.60898114	132.40738967	-45.70616110	-101.03774605
69.99000000	1304.67296149	1277.18267765	1189.73106143	997.50819580	1138.03450436	957.78460774	957.35608415	131.64388299	-45.73315438	-100.54555241
70	1306.49140385	1278.69841580	1191.50500909	999.56227721	1139.65382788	959.58547614	959.50847453	131.19019924	-45.87558099	-100.48298255
70.01000000	1308.10786982	1279.40723325	1193.06707976	1000.68504315	1140.54029687	960.72264460	960.83862780	131.08029888	-46.12825838	-100.90659649
70.02000000	1309.53527382	1279.41016090	1194.34777770	1000.99629409	1140.78228457	961.25140834	961.40958424	131.31960057	-46.48902040	-101.62739408
70.03000000	1310.84428062	1278.97577260	1195.29587632	1000.77855419	1140.60705461	961.34499550	961.45580177	131.89668479	-46.95748041	-102.31150781
70.04000000	1312.10630142	1278.37480766	1195.86038515	1000.31645076	1140.24366577	961.17815844	961.21395385	132.79991442	-47.53327476	-102.62319782
70.05000000	1313.39213706	1277.87657433	1195.99089442	999.89313901	1139.91998025	960.92485656	960.91957295	134.01755874	-48.21605299	-102.23052734
70.06000000	1314.72536554	1277.63965898	1195.68192448	999.67787522	1139.77128386	960.69769475	960.71991307	135.53064581	-49.00648514	-101.09580851
70.07000000	1316.04951887	1277.63496677	1195.00415530	999.64684903	1139.77593885	960.50527773	960.61259002	137.30792931	-49.90697105	-99.68012574
70.08000000	1317.30037540	1277.81522303	1194.03564409	999.75754866	1139.89710705	960.34613623	960.58072488	139.31697400	-50.92007810	-98.49287715
70.09000000	1318.41371344	1278.13315310	1192.85444806	999.96746233	1140.09795029	960.21880099	960.60743873	141.52534460	-52.04837368	-98.04346087
70.10000000	1319.32531133	1278.54148232	1191.53862440	1000.23407822	1140.34163040	960.12180274	960.67585265	143.90060586	-53.29442518	-98.84127505
70.11000000	1319.97094741	1278.99293603	1190.16623033	1000.51488457	1140.59130920	960.05367219	960.76908773	146.41032250	-54.66080000	-101.39571781
70.12000000	1320.28640002	1279.44023958	1188.81532305	1000.76736957	1140.81014853	960.01294009	960.87026502	149.02205926	-56.15006551	-106.21618729
70.13000000	1320.20744747	1279.83611829	1187.56395977	1000.94902143	1140.96131021	959.99813717	960.96250562	151.70338089	-57.76478911	-113.81208161
70.14000000	1319.67304028	1280.13458245	1186.48743674	1001.01885277	1141.00931463	960.00757220	961.02941401	154.42341188	-59.50618129	-124.62891899
70.15000000	1318.69508869	1280.31919601	1185.59754842	1000.97093754	1140.94992931	960.03444914	961.06571279	157.18715167	-61.34424402	-137.64297960
70.16000000	1317.35846271	1280.40307657	1184.84258751	1000.83441101	1140.81016884	960.06686715	961.07724276	160.03547456	-63.21777070	-150.36130556
70.17000000	1315.75120452	1280.40062669	1184.16808573	1000.63993286	1140.61840641	960.09270340	961.07032808	163.01081465	-65.06419785	-160.22705908
70.18000000	1313.96135628	1280.32624891	1183.51957480	1000.41816279	1140.40301519	960.09983509	961.05129292	166.15560604	-66.82096200	-164.68340236
70.19000000	1312.07696018	1280.19434578	1182.84258646	1000.19976047	1140.19236836	960.07613942	961.02646145	169.51228282	-68.42549967	-161.17349761
70.20000000	1310.18605837	1280.01931985	1182.08265244	1000.01538558	1140.01483909	960.00949357	961.00215785	173.12327909	-69.81524737	-147.14050703
70.21000000	1308.36865398	1279.81435779	1181.20397793	999.89061007	1139.89408721	959.89151276	960.98384234	177.01487811	-70.93697361	-120.75789827
70.22000000	1306.66126860	1279.58606982	1180.27176869	999.82348738	1139.82827903	959.73403026	960.97230230	181.12600684	-71.78792146	-84.14919975
70.23000000	1305.08579034	1279.33885291	1179.38522184	999.80280970	1139.80700113	959.55568366	960.96675246	185.36619288	-72.38232103	-40.76731620
70.24000000	1303.66409626	1279.07710233	1178.64356009	999.81736228	1139.81983363	959.37511569	960.96640637	189.64494166	-72.73441521	5.93384587
70.25000000	1302.41806342	1278.80521339	1178.14600614	999.85593034	1139.85635665	959.21096906	960.97047760	193.87175859	-72.85844691	52.50037995
70.26000000	1301.36956888	1278.52758135	1177.99178273	999.90729911	1139.90615029	959.08188649	960.97817968	197.95614910	-72.76865902	95.47837953
70.27000000	1300.54048971	1278.24860151	1178.28011256	999.96025380	1139.95879469	959.00651070	960.98872618	201.80761863	-72.47929444	131.41393809
70.28000000	1299.95269081	1277.97266694	1179.11016833	1000.00358218	1140.00387204	959.00347742	961.00133034	205.33568909	-72.00460263	156.85419618
70.29000000	1299.61188910	1277.70121443	1180.51475594	1000.02940466	1140.03374425	959.08213778	961.01481045	208.47175952	-71.36754813	169.73573610
70.30000000	1299.47581997	1277.42689665	1182.32948128	1000.03974430	1140.04903265	959.22425502	961.02681110	211.21223389	-70.61699106	172.12367726
70.31000000	1299.49334777	1277.14074223	1184.35349103	1000.03845503	1140.05188562	959.40649184	961.03475994	213.56553459	-69.80657928	166.84644205
70.32000000	1299.61333686	1276.83377979	1186.38593186	1000.02939073	1140.04445155	959.60551090	961.03608457	215.54008399	-68.98996061	156.73245287
70.33000000	1299.78465159	1276.49703797	1188.22595043	1000.01640533	1140.02887882	959.79797489	961.02821265	217.14430448	-68.22078291	144.61013210
70.34000000	1299.95615631	1276.12154539	1189.67269342	1000.00335273	1140.00731582	959.96054647	961.00857177	218.38661844	-67.55269400	133.30790214
70.35000000	1300.08027561	1275.69977621	1190.54347247	999.99382128	1139.98207460	960.07181447	960.97538545	219.27784405	-67.03482802	125.44313320
70.36000000	1300.14618848	1275.23912772	1190.84312759	999.98865788	1139.95715695	960.13025235	960.93509328	219.85353284	-66.66972116	121.45437412
70.37000000	1300.16475705	1274.75580108	1190.68713040	999.98709212	1139.93756148	960.14606446	960.89898197	220.16382770	-66.43241936	120.49478605
70.38000000	1300.14712370	1274.26611121	1190.19238245	999.98833266	1139.92829972	960.12960678	960.87840085	220.25906010	-66.29761327	121.70091668
70.39000000	1300.10443080	1273.78637307	1189.47578527	999.99158819	1139.93438316	960.09123527	960.88469928	220.18956151	-66.23999351	124.20931372
70.40000000	1300.04782073	1273.33290157	1188.65424040	999.99606738	1139.96082331	960.04130592	960.92922659	220.00566339	-66.23425071	127.15652487
70.41000000	1299.98842080	1272.92198715	1187.84448831	1000.00097996	1140.01262370	959.99016054	961.02331289	219.75763111	-66.25510869	129.68031304
70.42000000	1299.93416221	1272.56472295	1187.12912297	1000.00575884	1140.09309578	959.94514095	961.17420781	219.48171165	-66.28432413	131.17606618
70.43000000	1299.88584523	1272.26060631	1186.51455302	1000.01033484	1140.20177569	959.90689558	961.38005697	219.18287520	-66.31934501	131.61396772
70.44000000	1299.84330528	1272.00756561	1185.99687872	1000.01470617	1140.33768877	959.87516719	961.63777417	218.86186000	-66.35974242	131.04197470
70.45000000	1299.80637775	1271.80352918	1185.57220035	1000.01887103	1140.49986036	959.84969854	961.94427319	218.51940428	-66.40508748	129.50804413
70.46000000	1299.77489807	1271.64642540	1185.23661815	1000.02282762	1140.68731581	959.83023239	962.29646781	218.15624628	-66.45495129	127.06013304
